# xmcd CD database file
# Copyright (C) 1993-1998 Ti Kan
# 
# Track frame offsets:
#     150
#     11842
#     22820
#     35047
#     47892
#     59842
#     70032
#     83550
#     93767
#     108655
#     118300
#     131215
#     143775
#     154775
#     165857
#     179360
#     191355
#     204052
#     216577
#     228485
# 
# Disc length: 3192 seconds
# 
# Revision: 1
# Processed by: cddbd v1.4b41PL1 Copyright (c) Steve Scherf et al.
# Submitted via: DiscPlay 4.0.4
# 
DISCID=180c7614
DTITLE=Various Artist - Blues Shakers
DYEAR=1900
DGENRE=
TTITLE0=Elmore James - Shake Your Moneymaker
TTITLE1=Jimmy Reed - Left Handed Woman
TTITLE2=Buster Brown - Fanny Mae
TTITLE3=Big Mac - Rough Dried Woman Pt.1
TTITLE4=Otis Rush - All Your Love
TTITLE5=Magic Sam - Look Watcha Done
TTITLE6=Eddie Taylor - Big Town Playboy
TTITLE7=Earl Hooker - Blues in D Natural
TTITLE8=Lightnin' Hopkins - Big Car Blues
TTITLE9=Rosco Gordon - Just A Little Bit
TTITLE10=Rufus Thomas - Bear Cat
TTITLE11=Jimmy Reed - Roll and Rumba
TTITLE12=Wilbert Harrison - Kansas City
TTITLE13=Jimmy Witherspoon - Good Rockin' Tonight
TTITLE14=Buddy Guy - This Is The End
TTITLE15=Lonnie Brooks - Figure Head
TTITLE16=Ricky Allen - Cut You A-Loose
TTITLE17=John Lee Hooker - Frisco Blues
TTITLE18=Frank Frost - My Back Scratcher
TTITLE19=Bobby Rush - Bowlegged Woman, Knock-Kneed Man Pt.1
EXTD=
EXTT0=
EXTT1=
EXTT2=
EXTT3=
EXTT4=
EXTT5=
EXTT6=
EXTT7=
EXTT8=
EXTT9=
EXTT10=
EXTT11=
EXTT12=
EXTT13=
EXTT14=
EXTT15=
EXTT16=
EXTT17=
EXTT18=
EXTT19=
PLAYORDER=
